<svg width="33" height="34" viewBox="0 0 33 34" fill="none" xmlns="http://www.w3.org/2000/svg">
<rect width="5" height="1" transform="translate(0 14)" fill="black"/>
<rect width="5" height="1" transform="translate(23 14)" fill="black"/>
<rect width="6" height="1" transform="translate(0 17)" fill="black"/>
<rect width="6" height="1" transform="translate(23 17)" fill="black"/>
<rect width="1" height="3" transform="translate(5 4)" fill="black"/>
<rect width="1" height="6" transform="translate(6 2)" fill="black"/>
<rect width="1" height="7" transform="translate(7 1)" fill="black"/>
<rect width="1" height="8" transform="translate(8)" fill="black"/>
<rect width="1" height="6" transform="translate(9 2)" fill="black"/>
<rect width="1" height="4" transform="translate(10 3)" fill="black"/>
<rect width="1" height="6" transform="translate(17 3)" fill="black"/>
<rect width="1" height="8" transform="translate(18 1)" fill="black"/>
<rect width="1" height="9" transform="translate(19)" fill="black"/>
<rect width="1" height="8" transform="translate(20 1)" fill="black"/>
<rect width="1" height="7" transform="translate(21 2)" fill="black"/>
<rect width="1" height="4" transform="translate(24 11)" fill="black"/>
<rect width="1" height="5" transform="translate(3 10)" fill="black"/>
<rect width="1" height="12" transform="translate(4 7)" fill="black"/>
<rect width="18" height="14" transform="translate(5 5)" fill="black"/>
<rect width="1" height="11" transform="translate(23 7)" fill="black"/>
<rect width="16" height="1" transform="translate(6 19)" fill="black"/>
<rect width="14" height="1" transform="translate(7 20)" fill="black"/>
<rect width="10" height="1" transform="translate(9 21)" fill="black"/>
<rect width="1" height="3" transform="translate(16 11)" fill="white"/>
<rect width="1" height="3" transform="translate(20 11)" fill="white"/>
<rect width="3" height="5" transform="translate(17 10)" fill="white"/>
<rect width="3" height="3" transform="translate(17 11)" fill="black"/>
<rect width="1" height="3" transform="translate(7 11)" fill="white"/>
<rect width="1" height="3" transform="translate(11 11)" fill="white"/>
<rect width="3" height="5" transform="translate(8 10)" fill="white"/>
<rect width="3" height="3" transform="translate(8 11)" fill="black"/>
<rect width="18" height="1" transform="translate(5 21)" fill="black"/>
<rect width="14" height="1" transform="translate(7 20)" fill="black"/>
<rect width="8" height="1" transform="translate(10 19)" fill="black"/>
<rect width="20" height="3" transform="translate(4 22)" fill="black"/>
<rect width="22" height="5" transform="translate(3 25)" fill="black"/>
<rect width="20" height="3" transform="translate(4 30)" fill="black"/>
<rect width="16" height="1" transform="translate(6 33)" fill="black"/>
<rect width="2" height="9" transform="translate(29 24)" fill="black"/>
<rect width="1" height="2" transform="translate(28 29)" fill="black"/>
<rect width="2" height="1" transform="translate(26 30)" fill="black"/>
<rect width="8" height="2" transform="translate(21 31)" fill="black"/>
<rect width="5" height="1" transform="translate(24 33)" fill="black"/>
<rect width="1" height="3" transform="translate(28 25)" fill="black"/>
<rect width="1" height="7" transform="translate(31 25)" fill="black"/>
<rect width="1" height="5" transform="translate(32 26)" fill="black"/>
</svg>
