<svg width="30" height="30" viewBox="0 0 30 30" fill="none" xmlns="http://www.w3.org/2000/svg">
<path d="M10.5 2.5V4.5H11.5V5.5H12.5V7.5H17.5V5.5H18.5V3.5H19.5V2.5H21.5V3.5H22.5V4.5H23.5V10.5H24.5V11.5H25.5V14.5H26.5V16.5H29.5V18.5H26.5V19.5H29.5V21.5H25.5V22.5H24.5V23.5H23.5V24.5H22.5V25.5H20.5V26.5H9.5V25.5H7.5V24.5H6.5V23.5H4.5V21.5H0.5V19.5H3.5V18.5H0.5V16.5H3.5V13.5H4.5V11.5H5.5V6.5H6.5V4.5H7.5V3.5H8.5V2.5H10.5Z" fill="#D9D9D9" stroke="white"/>
<rect width="6" height="1" transform="translate(1 17)" fill="black"/>
<rect width="6" height="1" transform="translate(23 17)" fill="black"/>
<rect width="6" height="1" transform="translate(1 20)" fill="black"/>
<rect width="6" height="1" transform="translate(23 20)" fill="black"/>
<path d="M6 10V7H7V5H8V4H9V3H10V5H11V6H12V10H11V11H7V10H6Z" fill="black"/>
<path d="M19 6H18V10H19V11H22V10H23V5H22V4H21V3H20V4H19V6Z" fill="black"/>
<path d="M8 10H6V12H5V14H4V19H5V23H7V24H8V25H10V26H20V25H22V24H23V23H24V22H25V19H26V15H25V12H24V11H23V10H21V9H19V8H11V9H8V10Z" fill="black"/>
<rect width="1" height="3" transform="translate(17 14)" fill="white"/>
<rect width="1" height="3" transform="translate(21 14)" fill="white"/>
<rect width="3" height="5" transform="translate(18 13)" fill="white"/>
<rect width="3" height="3" transform="translate(18 14)" fill="black"/>
<rect width="1" height="3" transform="translate(8 14)" fill="white"/>
<rect width="1" height="3" transform="translate(12 14)" fill="white"/>
<rect width="3" height="5" transform="translate(9 13)" fill="white"/>
<rect width="3" height="3" transform="translate(9 14)" fill="black"/>
</svg>
