<svg width="35" height="36" viewBox="0 0 35 36" fill="none" xmlns="http://www.w3.org/2000/svg">
<path d="M19 20V21H22V22H24V23H25V26H26V31H25V34H23V35H7V34H5V31H4V26H5V23H6V22H8V21H11V20H19Z" fill="black"/>
<rect width="6" height="1" transform="translate(1 14)" fill="black"/>
<rect width="6" height="1" transform="translate(23 14)" fill="black"/>
<rect width="6" height="1" transform="translate(0 17)" fill="black"/>
<rect width="6" height="1" transform="translate(24 17)" fill="black"/>
<path d="M6 7V4H7V2H8V1H9V0H10V2H11V3H12V7H11V8H7V7H6Z" fill="black"/>
<path d="M19 3H18V7H19V8H22V7H23V2H22V1H21V0H20V1H19V3Z" fill="black"/>
<path d="M8 7H6V9H5V11H4V16H5V20H7V21H8V22H10V23H20V22H22V21H23V20H24V19H25V16H26V12H25V9H24V8H23V7H21V6H19V5H11V6H8V7Z" fill="black"/>
<rect width="1" height="3" transform="translate(17 11)" fill="white"/>
<rect width="1" height="3" transform="translate(21 11)" fill="white"/>
<rect width="3" height="5" transform="translate(18 10)" fill="white"/>
<rect width="3" height="3" transform="translate(18 11)" fill="black"/>
<rect width="1" height="3" transform="translate(8 11)" fill="white"/>
<rect width="1" height="3" transform="translate(12 11)" fill="white"/>
<rect width="3" height="5" transform="translate(9 10)" fill="white"/>
<rect width="3" height="3" transform="translate(9 11)" fill="black"/>
<path d="M22 32V31H28V30H30V29H31V28H30V25H31V24H33V25H34V26H35V31H34V32H33V33H31V34H26V33H23V32H22Z" fill="black"/>
<path d="M7 29V26H8V25H11V26H12V28H13V31H14V32H15V35H14V36H10V35H9V31H8V29H7Z" fill="black"/>
<path d="M24 29V26H23V25H20V26H19V28H18V31H17V32H16V35H17V36H21V35H22V31H23V29H24Z" fill="black"/>
</svg>
