<svg width="40" height="60" viewBox="0 0 40 60" fill="none" xmlns="http://www.w3.org/2000/svg">
<path d="M13 18H11V20H10V22H9V27H10V31H12V32H13V33H15V34H25V33H27V32H28V31H29V30H30V27H31V23H30V20H29V19H28V18H26V17H24V16H16V17H13V18Z" fill="black"/>
<path d="M26 51V50H32V49H34V48H35V47H34V44H35V43H37V44H38V45H39V50H38V51H37V52H35V53H30V52H27V51H26Z" fill="black"/>
<rect width="5" height="1.02083" transform="translate(6 24)" fill="black"/>
<rect width="5" height="1.02083" transform="translate(29 24)" fill="black"/>
<rect width="6" height="1.02083" transform="translate(5 27)" fill="black"/>
<rect width="6" height="1.02083" transform="translate(29 27)" fill="black"/>
<path d="M11 19V16H12V14H13V13H14V12H15V14H16V15H17V19H16V20H12V19H11Z" fill="black"/>
<path d="M24 15H23V19H24V20H27V19H28V14H27V13H26V12H25V13H24V15Z" fill="black"/>
<rect x="13" y="32" width="14" height="3" fill="black"/>
<rect x="12" y="34" width="16" height="3" fill="black"/>
<path d="M28 44H29V50H30V55H10V50H11V44H12V36H28V44Z" fill="black"/>
<rect width="1" height="3.0625" transform="translate(22 23.0205)" fill="white"/>
<rect width="1" height="3.0625" transform="translate(26 23.0205)" fill="white"/>
<rect width="3" height="5.10417" transform="translate(23 22)" fill="white"/>
<rect width="3" height="3.0625" transform="translate(23 23.0205)" fill="black"/>
<rect width="1" height="3.0625" transform="translate(13 23.0205)" fill="white"/>
<rect width="1" height="3.0625" transform="translate(17 23.0205)" fill="white"/>
<rect width="3" height="5.10417" transform="translate(14 22)" fill="white"/>
<rect width="3" height="3.0625" transform="translate(14 23.0205)" fill="black"/>
<path d="M10 56V52H18V56H17V58H16V60H12V58H11V56H10Z" fill="black"/>
<path d="M22 56V52H30V56H29V58H28V60H24V58H23V56H22Z" fill="black"/>
<path d="M8.22436 45.8499L7.25843 45.5911L9.84662 35.9319L10.8125 36.1907L11.0714 35.2247L12.0373 35.4836L12.2961 34.5176L15.1939 35.2941L12.0881 46.8852L11.1221 46.6264L10.8633 47.5923L7.96554 46.8159L8.22436 45.8499Z" fill="black"/>
<path d="M30.97 45.8499L31.9359 45.5911L29.3477 35.9319L28.3818 36.1907L28.123 35.2247L27.157 35.4836L26.8982 34.5176L24.0004 35.2941L27.1063 46.8852L28.0722 46.6264L28.331 47.5923L31.2288 46.8159L30.97 45.8499Z" fill="black"/>
</svg>
