<svg width="40" height="60" viewBox="0 0 40 60" fill="none" xmlns="http://www.w3.org/2000/svg">
<path d="M13 7H11V9H10V11H9V16H10V20H12V21H13V22H15V23H25V22H27V21H28V20H29V19H30V16H31V12H30V9H29V8H28V7H26V6H24V5H16V6H13V7Z" fill="black"/>
<path d="M26 40V39H32V38H34V37H35V36H34V33H35V32H37V33H38V34H39V39H38V40H37V41H35V42H30V41H27V40H26Z" fill="black"/>
<rect width="5" height="1.02083" transform="translate(6 13)" fill="black"/>
<rect width="5" height="1.02083" transform="translate(29 13)" fill="black"/>
<rect width="6" height="1.02083" transform="translate(5 16)" fill="black"/>
<rect width="6" height="1.02083" transform="translate(29 16)" fill="black"/>
<path d="M11 8V5H12V3H13V2H14V1H15V3H16V4H17V8H16V9H12V8H11Z" fill="black"/>
<path d="M24 4H23V8H24V9H27V8H28V3H27V2H26V1H25V2H24V4Z" fill="black"/>
<rect x="13" y="21" width="14" height="3" fill="black"/>
<rect x="12" y="23" width="16" height="3" fill="black"/>
<path d="M28 33H29V40.5H30V45.5H10V40.5H11V33H12V25H28V33Z" fill="black"/>
<path d="M13 12L17 14L13 16" stroke="white"/>
<path d="M27 12L23 14L27 16" stroke="white"/>
<path d="M9.03504 45.8637L10.0703 42L17.7977 44.0706L16.7624 47.9343L15.7965 47.6754L15.2789 49.6073L14.313 49.3485L13.7953 51.2803L9.93161 50.245L10.4492 48.3132L9.48332 48.0544L10.001 46.1225L9.03504 45.8637Z" fill="black"/>
<path d="M23.0353 48.0356L22 44.1719L29.7274 42.1013L30.7627 45.965L29.7968 46.2238L30.3144 48.1557L29.3485 48.4145L29.8661 50.3464L26.0024 51.3816L25.4848 49.4498L24.5188 49.7086L24.0012 47.7768L23.0353 48.0356Z" fill="black"/>
<path d="M5.86648 18.366L6.36648 17.5L15.0267 22.5L14.5267 23.366L15.3928 23.866L14.8928 24.7321L15.7588 25.2321L14.2588 27.8301L3.86648 21.8301L4.36648 20.9641L3.50046 20.4641L5.00046 17.866L5.86648 18.366Z" fill="black"/>
<path d="M33.8923 18.366L33.3923 17.5L24.7321 22.5L25.2321 23.366L24.366 23.866L24.866 24.7321L24 25.2321L25.5 27.8301L35.8923 21.8301L35.3923 20.9641L36.2583 20.4641L34.7583 17.866L33.8923 18.366Z" fill="black"/>
</svg>
