<svg width="50" height="50" viewBox="0 0 50 50" fill="none" xmlns="http://www.w3.org/2000/svg">
<path d="M13 13H3V14H2V15H1V22H2V23H3V24H4V25H13V24H14V22H15V21H16V17H15V15H14V14H13V13Z" fill="#D9D9D9" stroke="black"/>
<path d="M8 22H7V23H6V25" stroke="black"/>
<path d="M13 13H5V15H6V16H7V17H8V45.5H16V17H15V15H14V14H13V13Z" fill="#D9D9D9" stroke="black"/>
<path d="M21.242 26.2856L31.9922 23.9546L33.0517 28.841L19.8583 31.7018L19.6464 30.7245L16.2259 31.4662L16.014 30.4889L15.0367 30.7008L14.8248 29.7235L13.8475 29.9354L12.9999 26.0262L16.909 25.1786L17.1209 26.1559L21.0301 25.3083L21.242 26.2856Z" fill="black"/>
<path d="M36 39V38H42V37H44V36H45V35H44V32H45V31H47V32H48V33H49V38H48V39H47V40H45V41H40V40H37V39H36Z" fill="black"/>
<path d="M23 36V26H24V25H26V24H27V22H35V23H36V24H38V26H39V30H40V34H41V40H40V41H34V42H28V41H23V40H22V36H23Z" fill="black"/>
<path d="M22 42V38H30V42H29V44H28V46H24V44H23V42H22Z" fill="black"/>
<path d="M34 42V38H42V42H41V44H40V46H36V44H35V42H34Z" fill="black"/>
<path d="M24 10H22V12H21V14H20V19H21V23H23V24H24V25H26V26H36V25H38V24H39V23H40V22H41V19H42V15H41V12H40V11H39V10H37V9H35V8H27V9H24V10Z" fill="black"/>
<rect width="6" height="1" transform="translate(17 18)" fill="black"/>
<rect width="6" height="1" transform="translate(38 19)" fill="black"/>
<rect width="6" height="1" transform="translate(18 20)" fill="black"/>
<rect width="6" height="1" transform="translate(39 21)" fill="black"/>
<path d="M22 11V8H23V6H24V5H25V4H26V6H27V7H28V11H27V12H23V11H22Z" fill="black"/>
<path d="M35 7H34V11H35V12H38V11H39V6H38V5H37V4H36V5H35V7Z" fill="black"/>
<rect width="1" height="3" transform="translate(31 16)" fill="white"/>
<rect width="1" height="3" transform="translate(35 16)" fill="white"/>
<rect width="3" height="5" transform="translate(32 15)" fill="white"/>
<rect width="3" height="3" transform="translate(32 16)" fill="black"/>
<rect width="1" height="3" transform="translate(22 16)" fill="white"/>
<rect width="1" height="3" transform="translate(26 16)" fill="white"/>
<rect width="3" height="5" transform="translate(23 15)" fill="white"/>
<rect width="3" height="3" transform="translate(23 16)" fill="black"/>
<path d="M4 20V18H5V20H4Z" stroke="black"/>
<path d="M5 29V34.5" stroke="black"/>
<path d="M11.5 24V28" stroke="black"/>
<path d="M18 34V38" stroke="black"/>
<path d="M14 38V42" stroke="black"/>
<path d="M21.1804 21.4576L31.6003 24.9824L29.9981 29.7188L17.21 25.3928L17.5304 24.4456L14.215 23.324L14.5354 22.3767L13.5882 22.0563L13.9086 21.109L12.9613 20.7886L14.2431 16.9995L18.0322 18.2813L17.7117 19.2285L21.5008 20.5103L21.1804 21.4576Z" fill="black"/>
</svg>
