<svg width="40" height="145" viewBox="0 0 40 145" fill="none" xmlns="http://www.w3.org/2000/svg">
<path d="M10 138V134H18V138H17V140H16V142H12V140H11V138H10Z" fill="black"/>
<path d="M22 138V134H30V138H29V140H28V142H24V140H23V138H22Z" fill="black"/>
<path d="M11 34H13V39H12V42H11V45H9V40H10V36H11V34Z" fill="black"/>
<path d="M13 8H11V10H10V12H9V17H10V21H12V22H13V23H15V24H25V23H27V22H28V21H29V20H30V17H31V13H30V10H29V9H28V8H26V7H24V6H16V7H13V8Z" fill="black"/>
<path d="M27 133V132H33V131H35V130H36V129H35V126H36V125H38V126H39V127H40V132H39V133H38V134H36V135H31V134H28V133H27Z" fill="black"/>
<rect width="5" height="1.02083" transform="translate(6 14)" fill="black"/>
<rect width="5" height="1.02083" transform="translate(29 14)" fill="black"/>
<rect width="6" height="1.02083" transform="translate(5 17)" fill="black"/>
<rect width="6" height="1.02083" transform="translate(29 17)" fill="black"/>
<path d="M11 9V6H12V4H13V3H14V2H15V4H16V5H17V9H16V10H12V9H11Z" fill="black"/>
<path d="M24 5H23V9H24V10H27V9H28V4H27V3H26V2H25V3H24V5Z" fill="black"/>
<rect x="14" y="22" width="12" height="6" fill="black"/>
<rect x="13" y="27" width="14" height="6" fill="black"/>
<rect x="12" y="32" width="16" height="9" fill="black"/>
<rect x="13" y="40" width="14" height="9" fill="black"/>
<rect x="14" y="48" width="12" height="9" fill="black"/>
<rect x="14" y="56" width="12" height="9" fill="black"/>
<rect x="14" y="64" width="12" height="9" fill="black"/>
<rect x="14" y="72" width="12" height="9" fill="black"/>
<rect x="14" y="80" width="12" height="9" fill="black"/>
<rect x="13" y="88" width="14" height="9" fill="black"/>
<rect x="13" y="96" width="14" height="9" fill="black"/>
<rect x="12" y="104" width="16" height="9" fill="black"/>
<rect x="11" y="112" width="18" height="9" fill="black"/>
<rect x="10" y="120" width="20" height="9" fill="black"/>
<rect x="10" y="128" width="20" height="9" fill="black"/>
<rect width="1" height="3.0625" transform="translate(22 13.0205)" fill="white"/>
<rect width="1" height="3.0625" transform="translate(26 13.0205)" fill="white"/>
<rect width="3" height="5.10417" transform="translate(23 12)" fill="white"/>
<rect width="3" height="3.0625" transform="translate(23 13.0205)" fill="black"/>
<rect width="1" height="3.0625" transform="translate(13 13.0205)" fill="white"/>
<rect width="1" height="3.0625" transform="translate(17 13.0205)" fill="white"/>
<rect width="3" height="5.10417" transform="translate(14 12)" fill="white"/>
<rect width="3" height="3.0625" transform="translate(14 13.0205)" fill="black"/>
<path d="M29 34H27V39H28V42H29V45H31V40H30V36H29V34Z" fill="black"/>
</svg>
