<svg width="55" height="52" viewBox="0 0 55 52" fill="none" xmlns="http://www.w3.org/2000/svg">
<path d="M41 35V25V24H40V23H36L35 24H34V25H33V29H34V31H35V35H34V37H33V39H34V40H38V39H39V38H40V35H41Z" fill="black"/>
<path d="M49 35V25V24H48V23H44L43 24H42V25H41V29H42V31H43V35H42V37H41V39H42V40H46V39H47V38H48V35H49Z" fill="black"/>
<path d="M19 31V26.5H20V24.5H21H22V23H25V22H27V21H29V20H31V19H32H33V18H34V17H35H36V16H38V15H43V16H45V17H46H47V19H48V21H49V27H48V29H47V30H46V32H45V33H43V34H41H40H39H38V35H37V36H35V35H31H28H27H23H22H20V31H19Z" fill="black"/>
<path d="M6.72925 35.3958L19.1152 26.6328L23.1581 32.3473L10.7722 41.1102L6.72925 35.3958Z" fill="black"/>
<path d="M7.68648 34.7185L9.31918 33.5634L13.3621 39.2778L9.68852 41.8768L9.11097 41.0605L6.25374 43.0819L5.67619 42.2656L4.85984 42.8431L4.28228 42.0268L3.46593 42.6043L0.000573397 37.7063L3.26597 35.396L3.84353 36.2124L7.10892 33.9021L7.68648 34.7185Z" fill="black"/>
<path d="M13.7293 36.3958L26.1152 27.6328L30.1581 33.3473L17.7722 42.1102L13.7293 36.3958Z" fill="black"/>
<path d="M14.6865 35.7185L16.3192 34.5634L20.3621 40.2778L16.6885 42.8768L16.111 42.0605L13.2537 44.0819L12.6762 43.2656L11.8598 43.8431L11.2823 43.0268L10.4659 43.6043L7.00057 38.7063L10.266 36.396L10.8435 37.2124L14.1089 34.9021L14.6865 35.7185Z" fill="black"/>
<path d="M13 21H11V23H10V25H9V30H10V34H12V35H13V36H15V37H25V36H27V35H28V34H29V33H30V30H31V26H30V23H29V22H28V21H26V20H24V19H16V20H13V21Z" fill="black"/>
<rect width="6" height="1" transform="translate(5 29)" fill="black"/>
<rect width="6" height="1" transform="translate(6 32)" fill="black"/>
<path d="M11 24V19H12V17H13V16H14V15H15V17H16V18H17V24H11Z" fill="black"/>
<path d="M23 18V24H28V17H27V16H26V15H25V16H24V18H23Z" fill="black"/>
<rect width="1" height="3" transform="translate(20 27)" fill="white"/>
<rect width="1" height="3" transform="translate(24 27)" fill="white"/>
<rect width="3" height="5" transform="translate(21 26)" fill="white"/>
<rect width="3" height="3" transform="translate(21 27)" fill="black"/>
<rect width="1" height="3" transform="translate(11 27)" fill="white"/>
<rect width="1" height="3" transform="translate(15 27)" fill="white"/>
<rect width="3" height="5" transform="translate(12 26)" fill="white"/>
<rect width="3" height="3" transform="translate(12 27)" fill="black"/>
<path d="M41.8766 19.2978L41.392 18.4231L46.6405 15.5156L46.1559 14.6408L47.9054 13.6717L47.4209 12.7969L48.2956 12.3124L47.811 11.4376L46.9363 11.9222L45.4826 9.29795L46.3573 8.81337L45.8727 7.93863L47.6222 6.96947L48.1068 7.84422L48.9816 7.35965L49.4661 8.2344L50.3409 7.74982L52.7638 12.1236L51.889 12.6081L52.3736 13.4829L51.4988 13.9675L51.9834 14.8422L50.2339 15.8114L50.7185 16.6861L46.3448 19.109L45.8602 18.2342L43.2359 19.688L42.7514 18.8132L41.8766 19.2978Z" fill="black"/>
</svg>
