<svg width="40" height="145" viewBox="0 0 40 145" fill="none" xmlns="http://www.w3.org/2000/svg">
<path d="M11 26H13V31H12V34H11V37H9V32H10V28H11V26Z" fill="black"/>
<path d="M13 8H11V10H10V12H9V17H10V21H12V22H13V23H15V24H25V23H27V22H28V21H29V20H30V17H31V13H30V10H29V9H28V8H26V7H24V6H16V7H13V8Z" fill="black"/>
<path d="M27 51V50H33V49H35V48H36V47H35V44H36V43H38V44H39V45H40V50H39V51H38V52H36V53H31V52H28V51H27Z" fill="black"/>
<rect width="5" height="1.02083" transform="translate(6 14)" fill="black"/>
<rect width="5" height="1.02083" transform="translate(29 14)" fill="black"/>
<rect width="6" height="1.02083" transform="translate(5 17)" fill="black"/>
<rect width="6" height="1.02083" transform="translate(29 17)" fill="black"/>
<path d="M11 9V6H12V4H13V3H14V2H15V4H16V5H17V9H16V10H12V9H11Z" fill="black"/>
<path d="M24 5H23V9H24V10H27V9H28V4H27V3H26V2H25V3H24V5Z" fill="black"/>
<rect x="13" y="22" width="14" height="3" fill="black"/>
<rect x="12" y="24" width="16" height="3" fill="black"/>
<rect x="12" y="26" width="16" height="3" fill="black"/>
<rect x="12" y="28" width="16" height="3" fill="black"/>
<rect x="12" y="30" width="16" height="3" fill="black"/>
<rect x="12" y="32" width="16" height="3" fill="black"/>
<rect x="11" y="34" width="18" height="3" fill="black"/>
<rect x="11" y="36" width="18" height="3" fill="black"/>
<rect x="11" y="38" width="18" height="3" fill="black"/>
<rect x="11" y="40" width="18" height="3" fill="black"/>
<rect x="11" y="42" width="18" height="3" fill="black"/>
<rect x="11" y="44" width="18" height="3" fill="black"/>
<rect x="11" y="46" width="18" height="3" fill="black"/>
<rect x="10" y="48" width="20" height="3" fill="black"/>
<rect x="10" y="50" width="20" height="3" fill="black"/>
<rect width="1" height="3.0625" transform="translate(22 13.0205)" fill="white"/>
<rect width="1" height="3.0625" transform="translate(26 13.0205)" fill="white"/>
<rect width="3" height="5.10417" transform="translate(23 12)" fill="white"/>
<rect width="3" height="3.0625" transform="translate(23 13.0205)" fill="black"/>
<rect width="1" height="3.0625" transform="translate(13 13.0205)" fill="white"/>
<rect width="1" height="3.0625" transform="translate(17 13.0205)" fill="white"/>
<rect width="3" height="5.10417" transform="translate(14 12)" fill="white"/>
<rect width="3" height="3.0625" transform="translate(14 13.0205)" fill="black"/>
<path d="M29 26H27V31H28V34H29V37H31V32H30V28H29V26Z" fill="black"/>
<path d="M10 55V51H18V55H17V57H16V59H12V57H11V55H10Z" fill="black"/>
<path d="M22 55V51H30V55H29V57H28V59H24V57H23V55H22Z" fill="black"/>
</svg>
